<?xml version="1.0" encoding="UTF-8"?>
<svg xmlns="http://www.w3.org/2000/svg" xmlns:xlink="http://www.w3.org/1999/xlink"
     width="700" height="700" viewBox="-350.0 -350.0 700 700">
<defs>
</defs>
<path d="M-285.0,7.125 L-285.0,-97.5" stroke="black" />
<path d="M-277.875,0 L-270.75,7.125" stroke="black" />
<path d="M-277.875,0 L-285.0,7.125" stroke="black" />
<path d="M-280.375,-83.25 L-280.375,-97.5" stroke="black" />
<path d="M-275.375,-83.25 L-275.375,-97.5" stroke="black" />
<path d="M-270.75,7.125 L-237.5,7.125" stroke="black" />
<path d="M-230.375,0 L-223.25,7.125" stroke="black" />
<path d="M-230.375,0 L-237.5,7.125" stroke="black" />
<path d="M-232.875,-83.25 L-232.875,-97.5" stroke="black" />
<path d="M-227.875,-83.25 L-227.875,-97.5" stroke="black" />
<path d="M-223.25,7.125 L-201.75,7.125" stroke="black" />
<path d="M-194.625,0 L-187.5,7.125" stroke="black" />
<path d="M-194.625,0 L-201.75,7.125" stroke="black" />
<path d="M-197.125,-83.25 L-197.125,-97.5" stroke="black" />
<path d="M-192.125,-83.25 L-192.125,-97.5" stroke="black" />
<path d="M-187.5,7.125 L-154.25,7.125" stroke="black" />
<path d="M-147.125,0 L-140.0,7.125" stroke="black" />
<path d="M-147.125,0 L-154.25,7.125" stroke="black" />
<path d="M-149.625,-83.25 L-149.625,-97.5" stroke="black" />
<path d="M-144.625,-83.25 L-144.625,-97.5" stroke="black" />
<path d="M-140.0,7.125 L-118.5,7.125" stroke="black" />
<path d="M-118.5,7.125 L-111.375,0" stroke="black" />
<path d="M-111.375,0 L-111.375,-97.5" stroke="black" />
<path d="M-285.0,-97.5 L-111.375,-97.5" stroke="black" />
</svg>